<svg width="75" height="75" viewBox="0 0 75 75" fill="none" xmlns="http://www.w3.org/2000/svg">
<path d="M37.5002 0L27.5002 10H35.0002V17.7002C26.5236 18.9169 20.0002 26.1868 20.0002 35C20.0002 44.665 27.8352 52.5 37.5002 52.5C47.1652 52.5 55.0002 44.665 55.0002 35C55.0002 26.1868 48.4768 18.9169 40.0002 17.7002V10H47.5002L37.5002 0ZM31.6409 25.9326H43.3645V29.4238H35.0979L34.7659 33.5156H35.0002C35.6827 32.4181 36.9281 31.709 38.7356 31.709C42.0806 31.709 44.4729 34.1872 44.4729 37.6172C44.4704 41.4297 41.6647 44.0283 37.4172 44.0283C33.3272 44.0283 30.595 41.6204 30.5325 38.4229H34.595C34.8025 39.7179 35.9739 40.5713 37.4514 40.5713C39.0864 40.5713 40.2493 39.452 40.2493 37.7295C40.2493 35.972 39.0766 34.7998 37.4416 34.7998C36.1966 34.7998 35.3161 35.36 34.7561 36.25H30.8108L31.6409 25.9326ZM9.96117 47.4658C9.29898 47.4762 8.66795 47.7488 8.20658 48.2239C7.7452 48.699 7.49117 49.3378 7.50023 50V60C7.50023 64.1124 10.8878 67.5 15.0002 67.5H60.0002C64.1127 67.5 67.5002 64.1124 67.5002 60V50C67.5049 49.6687 67.4437 49.3398 67.3202 49.0324C67.1966 48.725 67.0132 48.4452 66.7806 48.2092C66.548 47.9733 66.2708 47.786 65.9652 47.6581C65.6596 47.5302 65.3315 47.4644 65.0002 47.4644C64.6689 47.4644 64.3409 47.5302 64.0353 47.6581C63.7296 47.786 63.4524 47.9733 63.2198 48.2092C62.9872 48.4452 62.8038 48.725 62.6803 49.0324C62.5568 49.3398 62.4955 49.6687 62.5002 50V60C62.5002 61.4126 61.4128 62.5 60.0002 62.5H15.0002C13.5877 62.5 12.5002 61.4126 12.5002 60V50C12.5048 49.6655 12.4422 49.3335 12.3162 49.0237C12.1902 48.7138 12.0032 48.4324 11.7665 48.1961C11.5297 47.9598 11.2479 47.7734 10.9378 47.648C10.6277 47.5225 10.2956 47.4606 9.96117 47.4658Z" fill="#1488CC"/>
</svg>
