<svg width="75" height="75" viewBox="0 0 75 75" fill="none" xmlns="http://www.w3.org/2000/svg">
<path d="M39.9995 17.4998H24.9995V22.4993H39.9995V17.4998Z" fill="#1488CC"/>
<path d="M50.0002 17.4998H45V22.4993H50.0002V17.4998Z" fill="#1488CC"/>
<path d="M39.9995 27.4995H24.9995V32.4998H39.9995V27.4995Z" fill="#1488CC"/>
<path d="M50.0002 27.4995H45V32.4998H50.0002V27.4995Z" fill="#1488CC"/>
<path d="M39.9995 37.5007H24.9995V42.501H39.9995V37.5007Z" fill="#1488CC"/>
<path d="M39.9995 47.5005H24.9995V52.5007H39.9995V47.5005Z" fill="#1488CC"/>
<path d="M50.0002 37.5007H45V42.501H50.0002V37.5007Z" fill="#1488CC"/>
<path d="M60 57.501V9.99974C60 8.62724 58.8742 7.49924 57.5002 7.49924H17.4998C16.125 7.49924 15 8.62724 15 9.99974V65.001C15 66.3727 16.125 67.5007 17.4998 67.5007H49.9995L60 57.501ZM45 55.0005V62.5005H20.0002V12.4995H55.0005V52.5007H47.5005C46.1257 52.5007 45 53.6235 45 55.0005Z" fill="#1488CC"/>
</svg>
