<svg width="202" height="25" viewBox="0 0 202 25" fill="none" xmlns="http://www.w3.org/2000/svg">
<path d="M30.1364 4.78409V0.727272H49.25V4.78409H42.125V24H37.2614V4.78409H30.1364ZM57.3182 0.727272V24H52.3977V0.727272H57.3182ZM65.571 0.727272L71.196 18.4091H71.4119L77.0483 0.727272H82.5028L74.4801 24H68.1392L60.1051 0.727272H65.571ZM90.2244 0.727272V24H85.304V0.727272H90.2244ZM114.807 8.875H109.83C109.739 8.23106 109.553 7.65909 109.273 7.15909C108.992 6.65151 108.633 6.2197 108.193 5.86364C107.754 5.50757 107.246 5.23485 106.67 5.04545C106.102 4.85606 105.485 4.76136 104.818 4.76136C103.614 4.76136 102.564 5.06061 101.67 5.65909C100.777 6.25 100.083 7.11364 99.5909 8.25C99.0985 9.37879 98.8523 10.75 98.8523 12.3636C98.8523 14.0227 99.0985 15.4167 99.5909 16.5455C100.091 17.6742 100.788 18.5265 101.682 19.1023C102.576 19.678 103.61 19.9659 104.784 19.9659C105.443 19.9659 106.053 19.8788 106.614 19.7045C107.182 19.5303 107.686 19.2765 108.125 18.9432C108.564 18.6023 108.928 18.1894 109.216 17.7045C109.511 17.2197 109.716 16.6667 109.83 16.0455L114.807 16.0682C114.678 17.1364 114.356 18.1667 113.841 19.1591C113.333 20.1439 112.648 21.0265 111.784 21.8068C110.928 22.5795 109.905 23.1932 108.716 23.6477C107.534 24.0947 106.197 24.3182 104.705 24.3182C102.629 24.3182 100.773 23.8485 99.1364 22.9091C97.5076 21.9697 96.2197 20.6098 95.2727 18.8295C94.3333 17.0492 93.8636 14.8939 93.8636 12.3636C93.8636 9.82576 94.3409 7.66667 95.2955 5.88636C96.25 4.10606 97.5455 2.75 99.1818 1.81818C100.818 0.878787 102.659 0.40909 104.705 0.40909C106.053 0.40909 107.303 0.598484 108.455 0.977272C109.614 1.35606 110.64 1.90909 111.534 2.63636C112.428 3.35606 113.155 4.23864 113.716 5.28409C114.284 6.32954 114.648 7.52651 114.807 8.875ZM125.741 24V0.727272H135.06C136.772 0.727272 138.2 0.98106 139.344 1.48864C140.488 1.99621 141.348 2.70076 141.923 3.60227C142.499 4.49621 142.787 5.52652 142.787 6.69318C142.787 7.60227 142.605 8.40152 142.241 9.09091C141.878 9.77273 141.378 10.3333 140.741 10.7727C140.113 11.2045 139.393 11.5114 138.582 11.6932V11.9205C139.469 11.9583 140.298 12.2083 141.071 12.6705C141.851 13.1326 142.484 13.7803 142.969 14.6136C143.454 15.4394 143.696 16.4242 143.696 17.5682C143.696 18.803 143.389 19.9053 142.776 20.875C142.17 21.8371 141.272 22.5985 140.082 23.1591C138.893 23.7197 137.427 24 135.685 24H125.741ZM130.662 19.9773H134.673C136.045 19.9773 137.045 19.7159 137.673 19.1932C138.302 18.6629 138.616 17.9583 138.616 17.0795C138.616 16.4356 138.461 15.8674 138.151 15.375C137.84 14.8826 137.397 14.4962 136.821 14.2159C136.253 13.9356 135.575 13.7955 134.787 13.7955H130.662V19.9773ZM130.662 10.4659H134.31C134.984 10.4659 135.582 10.3485 136.105 10.1136C136.635 9.87121 137.052 9.5303 137.355 9.09091C137.666 8.65152 137.821 8.125 137.821 7.51136C137.821 6.67045 137.522 5.99242 136.923 5.47727C136.332 4.96212 135.491 4.70454 134.401 4.70454H130.662V10.4659ZM151.784 24.3295C150.67 24.3295 149.678 24.1364 148.807 23.75C147.936 23.3561 147.246 22.7765 146.739 22.0114C146.239 21.2386 145.989 20.2765 145.989 19.125C145.989 18.1553 146.167 17.3409 146.523 16.6818C146.879 16.0227 147.364 15.4924 147.977 15.0909C148.591 14.6894 149.288 14.3864 150.068 14.1818C150.856 13.9773 151.682 13.8333 152.545 13.75C153.561 13.6439 154.379 13.5455 155 13.4545C155.621 13.3561 156.072 13.2121 156.352 13.0227C156.633 12.8333 156.773 12.553 156.773 12.1818V12.1136C156.773 11.3939 156.545 10.8371 156.091 10.4432C155.644 10.0492 155.008 9.85227 154.182 9.85227C153.311 9.85227 152.617 10.0455 152.102 10.4318C151.587 10.8106 151.246 11.2879 151.08 11.8636L146.602 11.5C146.83 10.4394 147.277 9.52273 147.943 8.75C148.61 7.9697 149.47 7.37121 150.523 6.95454C151.583 6.5303 152.811 6.31818 154.205 6.31818C155.174 6.31818 156.102 6.43182 156.989 6.65909C157.883 6.88636 158.674 7.23864 159.364 7.71591C160.061 8.19318 160.61 8.80682 161.011 9.55682C161.413 10.2992 161.614 11.1894 161.614 12.2273V24H157.023V21.5795H156.886C156.606 22.125 156.231 22.6061 155.761 23.0227C155.292 23.4318 154.727 23.7538 154.068 23.9886C153.409 24.2159 152.648 24.3295 151.784 24.3295ZM153.17 20.9886C153.883 20.9886 154.511 20.8485 155.057 20.5682C155.602 20.2803 156.03 19.8939 156.341 19.4091C156.652 18.9242 156.807 18.375 156.807 17.7614V15.9091C156.655 16.0076 156.447 16.0985 156.182 16.1818C155.924 16.2576 155.633 16.3295 155.307 16.3977C154.981 16.4583 154.655 16.5152 154.33 16.5682C154.004 16.6136 153.708 16.6553 153.443 16.6932C152.875 16.7765 152.379 16.9091 151.955 17.0909C151.53 17.2727 151.201 17.5189 150.966 17.8295C150.731 18.1326 150.614 18.5114 150.614 18.9659C150.614 19.625 150.852 20.1288 151.33 20.4773C151.814 20.8182 152.428 20.9886 153.17 20.9886ZM170.21 13.9091V24H165.369V6.54545H169.983V9.625H170.188C170.574 8.60985 171.222 7.80682 172.131 7.21591C173.04 6.61742 174.142 6.31818 175.438 6.31818C176.65 6.31818 177.706 6.58333 178.608 7.11364C179.509 7.64394 180.21 8.40151 180.71 9.38636C181.21 10.3636 181.46 11.5303 181.46 12.8864V24H176.619V13.75C176.627 12.6818 176.354 11.8485 175.801 11.25C175.248 10.6439 174.487 10.3409 173.517 10.3409C172.866 10.3409 172.29 10.4811 171.79 10.7614C171.297 11.0417 170.911 11.4508 170.631 11.9886C170.358 12.5189 170.218 13.1591 170.21 13.9091ZM189.662 18.9773L189.673 13.1705H190.378L195.969 6.54545H201.526L194.014 15.3182H192.866L189.662 18.9773ZM185.276 24V0.727272H190.116V24H185.276ZM196.185 24L191.048 16.3977L194.276 12.9773L201.855 24H196.185Z" fill="black"/>
<path d="M11.4115 0.119543L0.912741 4.61998C0.256568 4.90126 -0.109014 5.60445 0.0362811 6.29827C0.181577 6.99209 0.79088 7.49839 1.5033 7.49839V7.87343C1.5033 8.49692 2.0048 8.99854 2.62816 8.99854H21.376C21.9993 8.99854 22.5008 8.49692 22.5008 7.87343V7.49839C23.2132 7.49839 23.8272 6.99678 23.9678 6.29827C24.1085 5.59976 23.7429 4.89657 23.0914 4.61998L12.5926 0.119543C12.2177 -0.0398476 11.7865 -0.0398476 11.4115 0.119543ZM6.00277 10.4987H3.00312V19.7011C2.975 19.7152 2.94688 19.734 2.91876 19.7527L0.669019 21.2529C0.120646 21.6185 -0.127762 22.303 0.0644028 22.9358C0.256568 23.5687 0.842436 24 1.5033 24H22.5008C23.1617 24 23.7429 23.5687 23.935 22.9358C24.1272 22.303 23.8835 21.6185 23.3304 21.2529L21.0807 19.7527C21.0526 19.734 21.0244 19.7199 20.9963 19.7011V10.4987H18.0014V19.4996H16.1266V10.4987H13.1269V19.4996H10.8772V10.4987H7.87755V19.4996H6.00277V10.4987ZM12.0021 2.99795C12.3998 2.99795 12.7813 3.156 13.0626 3.43733C13.3439 3.71866 13.5019 4.10023 13.5019 4.4981C13.5019 4.89596 13.3439 5.27753 13.0626 5.55886C12.7813 5.84019 12.3998 5.99824 12.0021 5.99824C11.6043 5.99824 11.2228 5.84019 10.9415 5.55886C10.6603 5.27753 10.5022 4.89596 10.5022 4.4981C10.5022 4.10023 10.6603 3.71866 10.9415 3.43733C11.2228 3.156 11.6043 2.99795 12.0021 2.99795Z" fill="#1488CC"/>
</svg>
