<svg width="48" height="48" viewBox="0 0 48 48" fill="none" xmlns="http://www.w3.org/2000/svg">
<path d="M24 0.888885C11.256 0.888885 0.888888 11.2569 0.888888 24C0.888888 36.7431 11.256 47.1111 24 47.1111C32.1627 47.1111 39.342 42.8516 43.4549 36.4444H34.0313C31.2855 38.664 27.7973 40 24 40C15.1778 40 8 32.8222 8 24C8 15.1778 15.1778 8 24 8C27.7982 8 31.2855 9.336 34.0313 11.5556H43.4549C39.342 5.14844 32.1627 0.888885 24 0.888885ZM38.6806 15.5556C38.112 15.5576 37.5427 15.7767 37.1094 16.2118C36.2454 17.0829 36.2513 18.4893 37.1215 19.3542L39.1146 21.3333H26.6667C25.1938 21.3333 24 22.5271 24 24C24 25.4729 25.1938 26.6667 26.6667 26.6667H39.1163L37.1233 28.6458C36.2522 29.5107 36.2462 30.9171 37.1111 31.7882C37.5458 32.2255 38.1159 32.4444 38.6875 32.4444C39.2537 32.4444 39.8206 32.2297 40.2535 31.7986L46.5208 25.5764C46.9404 25.1595 47.1771 24.5903 47.1771 23.9983C47.1771 23.4063 46.9413 22.8396 46.5208 22.4219L40.2535 16.1996C39.8179 15.7681 39.2491 15.5536 38.6806 15.5556Z" fill="#1488CC"/>
</svg>
