<svg width="75" height="75" viewBox="0 0 75 75" fill="none" xmlns="http://www.w3.org/2000/svg">
<path d="M37.5002 5C27.8352 5 20.0002 12.835 20.0002 22.5C20.0002 31.3132 26.5236 38.5831 35.0002 39.7998V47.5H27.5002L37.5002 57.5L47.5002 47.5H40.0002V39.7998C48.4768 38.5831 55.0002 31.3132 55.0002 22.5C55.0002 12.835 47.1652 5 37.5002 5ZM31.6409 13.4326H43.3645V16.9238H35.0979L34.7659 21.0156H35.0002C35.6827 19.9181 36.9281 19.209 38.7356 19.209C42.0806 19.209 44.4729 21.6872 44.4729 25.1172C44.4704 28.9297 41.6647 31.5283 37.4172 31.5283C33.3272 31.5283 30.595 29.1204 30.5325 25.9229H34.595C34.8025 27.2179 35.9739 28.0713 37.4514 28.0713C39.0864 28.0713 40.2493 26.952 40.2493 25.2295C40.2493 23.472 39.0766 22.2998 37.4416 22.2998C36.1966 22.2998 35.3161 22.86 34.7561 23.75H30.8108L31.6409 13.4326ZM9.96117 47.4658C9.29898 47.4762 8.66795 47.7488 8.20658 48.2239C7.7452 48.699 7.49117 49.3378 7.50023 50V60C7.50023 64.1124 10.8878 67.5 15.0002 67.5H60.0002C64.1127 67.5 67.5002 64.1124 67.5002 60V50C67.5049 49.6687 67.4437 49.3398 67.3202 49.0324C67.1966 48.725 67.0132 48.4452 66.7806 48.2092C66.548 47.9733 66.2708 47.786 65.9652 47.6581C65.6596 47.5302 65.3315 47.4644 65.0002 47.4644C64.6689 47.4644 64.3409 47.5302 64.0353 47.6581C63.7296 47.786 63.4524 47.9733 63.2198 48.2092C62.9872 48.4452 62.8038 48.725 62.6803 49.0324C62.5568 49.3398 62.4955 49.6687 62.5002 50V60C62.5002 61.4126 61.4128 62.5 60.0002 62.5H15.0002C13.5877 62.5 12.5002 61.4126 12.5002 60V50C12.5048 49.6655 12.4422 49.3335 12.3162 49.0237C12.1902 48.7138 12.0032 48.4324 11.7665 48.1961C11.5297 47.9598 11.2479 47.7734 10.9378 47.648C10.6277 47.5225 10.2956 47.4606 9.96117 47.4658Z" fill="#1488CC"/>
</svg>
