<svg width="75" height="75" viewBox="0 0 75 75" fill="none" xmlns="http://www.w3.org/2000/svg">
<path d="M71.85 42.5H43.15C41.4 42.5 40 43.9 40 45.65V68.725C40 72.2 42.8 75 46.275 75H67.5C71.65 75 75 71.65 75 67.5V45.65C75 43.9 73.6 42.5 71.85 42.5ZM63.875 51.375H51.125C50.25 51.375 49.55 50.65 49.55 49.775C49.55 48.9 50.25 48.175 51.125 48.175H63.875C64.75 48.175 65.45 48.9 65.45 49.775C65.45 50.65 64.75 51.375 63.875 51.375ZM72.5 17.5H57.4225V11.9675C57.2475 11.1675 56.7225 10.4675 55.9225 10.1675C54.9975 9.7675 53.9225 9.9925 53.1975 10.6925L45.9225 17.9925C45.2975 18.4675 44.9225 19.2175 44.9475 20.0175C44.9475 20.7675 45.2975 21.4925 45.9225 21.9425V21.9675L53.1975 29.2425C53.9225 29.9425 54.9975 30.1675 55.9225 29.7675C56.7225 29.4675 57.2475 28.7675 57.4225 27.9675V22.5H72.5C73.8825 22.5 75 21.3825 75 20C75 18.6175 73.8825 17.5 72.5 17.5ZM22.5 37.5C32.175 37.5 40 29.675 40 20C40 10.325 32.175 2.5 22.5 2.5C12.825 2.5 5 10.325 5 20C5 29.675 12.825 37.5 22.5 37.5ZM20 12.5C20 11.125 21.125 10 22.5 10C23.875 10 25 11.125 25 12.5V27.5C25 28.875 23.875 30 22.5 30C21.125 30 20 28.875 20 27.5V12.5ZM33.9475 55.47L26.6725 48.195C25.9475 47.495 24.8725 47.27 23.9475 47.67C23.1475 47.97 22.6225 48.67 22.4475 49.47V55H7.5C6.1175 55 5 56.1175 5 57.5C5 58.8825 6.1175 60 7.5 60H22.4475V65.47C22.6225 66.27 23.1475 66.97 23.9475 67.27C24.8725 67.67 25.9475 67.445 26.6725 66.745L33.9475 59.445C34.5725 58.97 34.9475 58.22 34.9225 57.42C34.9225 56.67 34.5725 55.945 33.9475 55.495V55.47Z" fill="#1488CC"/>
</svg>
